<svg xmlns="http://www.w3.org/2000/svg" width="256" height="256" viewBox="0 0 256 256" role="img" aria-labelledby="title"><title id="title">Barang dapur</title><ellipse cx="128" cy="217" rx="79" ry="11" fill="#604530" opacity=".12"/><g stroke="#302d38" stroke-width="3.5" stroke-linecap="round" stroke-linejoin="round"><path d="M69 116q-8-28 18-30q-10-30 17-25q8-25 26-5q22-25 33 4q29-10 24 16q25 11 7 33Z" fill="#609865" /><path d="M88 95l47 76 15-11-45-75Z" fill="#e78c43" /><path d="M148 91q25-40 43-26q14 17-34 39Z" fill="#89ad61" /><ellipse cx="115" cy="118" rx="24" ry="21" fill="#a6c375" /><ellipse cx="160" cy="123" rx="19" ry="19" fill="#d85247" /><path d="M153 106l7-10 4 11" fill="#609865" /><path d="M59 111L179 104L195 196L75 202Z" fill="#bc9061" /><path d="M75 202l-16-91-16 13 16 67Z" fill="#a27850" /><path d="M74 109v-23q35-33 70-6l4 25" fill="none" stroke-width="7"/><path d="M85 131h77M89 147h67" fill="none" stroke-width="2"/></g></svg>
