<svg xmlns="http://www.w3.org/2000/svg" width="256" height="256" viewBox="0 0 256 256" role="img" aria-labelledby="title"><title id="title">Buku tertinggal</title><ellipse cx="128" cy="217" rx="79" ry="11" fill="#604530" opacity=".12"/><g stroke="#302d38" stroke-width="3.5" stroke-linecap="round" stroke-linejoin="round"><path d="M61 59L174 44L199 183L83 205Z" fill="#a4b4c3" /><path d="M69 63L85 195L197 180L201 189L84 210L66 199Z" fill="#fff0ce" /><path d="M69 60L88 195" fill="none" stroke-width="3"/><path d="M89 76L165 66L171 111L96 121Z" fill="#fff0ce" /><text x="132" y="92" text-anchor="middle" font-family="sans-serif" font-size="12" font-weight="800" fill="#302d38" stroke="none">LATIHAN</text><path d="M101 143h68" fill="none" stroke-width="2" opacity=".5"/><path d="M101 153h68" fill="none" stroke-width="2" opacity=".5"/><path d="M101 163h68" fill="none" stroke-width="2" opacity=".5"/><path d="M101 173h68" fill="none" stroke-width="2" opacity=".5"/><path d="M72 62l21 132 101-14" fill="none" stroke="#c2dfd9" stroke-width="3"/><rect x="131" y="122" width="42" height="20" rx="1" fill="#fff0ce" transform="rotate(-8 152 132)"/><text x="151" y="134" text-anchor="middle" font-family="sans-serif" font-size="6" font-weight="800" fill="#302d38" stroke="none">3 BESTARI</text></g></svg>
