<svg xmlns="http://www.w3.org/2000/svg" width="256" height="256" viewBox="0 0 256 256" role="img" aria-labelledby="title"><title id="title">Gula pasir</title><ellipse cx="128" cy="217" rx="79" ry="11" fill="#604530" opacity=".12"/><g stroke="#302d38" stroke-width="3.5" stroke-linecap="round" stroke-linejoin="round"><path d="M76 50q54-13 107 0l-5 20 16 116q-62 23-129 0L80 72Z" fill="#e9f0e6" /><path d="M78 67q49 7 102 0M78 182q50 16 103 0" fill="none" /><path d="M80 52l12 13-7 18M175 51l-10 14 9 17" fill="none" stroke-width="2"/><rect x="89" y="99" width="80" height="53" rx="3" fill="#fff7e4" /><text x="129" y="123" text-anchor="middle" font-family="sans-serif" font-size="14" font-weight="800" fill="#302d38" stroke="none">GULA</text><path d="M107 137h43" fill="none" stroke-width="2" opacity=".5"/><path d="M73 156q53-14 112 1l-5 28q-52 21-110-1Z" fill="#fff8e6" /><ellipse cx="83" cy="166" rx="1.2" ry="1.2" fill="#cbb88c" stroke="none"/><ellipse cx="106" cy="173" rx="1.2" ry="1.2" fill="#cbb88c" stroke="none"/><ellipse cx="129" cy="180" rx="1.2" ry="1.2" fill="#cbb88c" stroke="none"/><ellipse cx="152" cy="170" rx="1.2" ry="1.2" fill="#cbb88c" stroke="none"/><ellipse cx="86" cy="177" rx="1.2" ry="1.2" fill="#cbb88c" stroke="none"/><ellipse cx="109" cy="167" rx="1.2" ry="1.2" fill="#cbb88c" stroke="none"/><ellipse cx="132" cy="174" rx="1.2" ry="1.2" fill="#cbb88c" stroke="none"/><ellipse cx="155" cy="181" rx="1.2" ry="1.2" fill="#cbb88c" stroke="none"/><ellipse cx="89" cy="171" rx="1.2" ry="1.2" fill="#cbb88c" stroke="none"/><ellipse cx="112" cy="178" rx="1.2" ry="1.2" fill="#cbb88c" stroke="none"/><ellipse cx="135" cy="168" rx="1.2" ry="1.2" fill="#cbb88c" stroke="none"/><ellipse cx="158" cy="175" rx="1.2" ry="1.2" fill="#cbb88c" stroke="none"/><ellipse cx="92" cy="182" rx="1.2" ry="1.2" fill="#cbb88c" stroke="none"/><ellipse cx="115" cy="172" rx="1.2" ry="1.2" fill="#cbb88c" stroke="none"/><ellipse cx="138" cy="179" rx="1.2" ry="1.2" fill="#cbb88c" stroke="none"/><ellipse cx="161" cy="169" rx="1.2" ry="1.2" fill="#cbb88c" stroke="none"/><ellipse cx="95" cy="176" rx="1.2" ry="1.2" fill="#cbb88c" stroke="none"/><ellipse cx="118" cy="166" rx="1.2" ry="1.2" fill="#cbb88c" stroke="none"/></g></svg>
