<svg xmlns="http://www.w3.org/2000/svg" width="256" height="256" viewBox="0 0 256 256" role="img" aria-labelledby="title"><title id="title">Kain lap</title><ellipse cx="128" cy="217" rx="79" ry="11" fill="#604530" opacity=".12"/><g stroke="#302d38" stroke-width="3.5" stroke-linecap="round" stroke-linejoin="round"><rect x="60" y="65" width="135" height="133" rx="8" fill="#fff0ce" transform="rotate(-9 128 132)"/><rect x="66" y="76" width="122" height="6" rx="0" fill="#d85247" stroke="none" transform="rotate(-9 128 132)"/><rect x="66" y="95" width="122" height="6" rx="0" fill="#d85247" stroke="none" transform="rotate(-9 128 132)"/><rect x="66" y="114" width="122" height="6" rx="0" fill="#d85247" stroke="none" transform="rotate(-9 128 132)"/><rect x="66" y="133" width="122" height="6" rx="0" fill="#d85247" stroke="none" transform="rotate(-9 128 132)"/><rect x="66" y="152" width="122" height="6" rx="0" fill="#d85247" stroke="none" transform="rotate(-9 128 132)"/><rect x="66" y="171" width="122" height="6" rx="0" fill="#d85247" stroke="none" transform="rotate(-9 128 132)"/><path d="M58 183l18 25 119-15-11-20Z" fill="#e1d6b8" /><path d="M72 190l4 17M90 187l3 18M111 183l3 20M133 180l2 19M153 177l2 19" fill="none" stroke-width="2"/></g></svg>
