<svg xmlns="http://www.w3.org/2000/svg" width="256" height="256" viewBox="0 0 256 256" role="img" aria-labelledby="title"><title id="title">Kuih petang</title><ellipse cx="128" cy="217" rx="79" ry="11" fill="#604530" opacity=".12"/><g stroke="#302d38" stroke-width="3.5" stroke-linecap="round" stroke-linejoin="round"><ellipse cx="129" cy="171" rx="83" ry="24" fill="#fff0ce" /><path d="M59 164q46.666666666666664 -30 140 0q-46.666666666666664 30 -140 0Z" fill="#609865" /><path d="M67 164h124" fill="none" stroke-width="2"/><rect x="74" y="119" width="52" height="41" rx="3" fill="#f5c6bb" /><rect x="75" y="131" width="51" height="8" rx="0" fill="#d85247" stroke-width="1.5"/><rect x="75" y="148" width="51" height="8" rx="0" fill="#d85247" stroke-width="1.5"/><path d="M75 119l20-11 53 0-23 12Z" fill="#f5908c" /><path d="M126 120l22-12v39l-22 14Z" fill="#d77879" /><ellipse cx="162" cy="142" rx="19" ry="19" fill="#8ca65c" /><ellipse cx="179" cy="163" rx="16" ry="16" fill="#8ca65c" /><ellipse cx="144" cy="171" rx="17" ry="17" fill="#8ca65c" /><ellipse cx="144" cy="135" rx="1.4" ry="1.4" fill="#fff0ce" stroke="none"/><ellipse cx="157" cy="154" rx="1.4" ry="1.4" fill="#fff0ce" stroke="none"/><ellipse cx="170" cy="136" rx="1.4" ry="1.4" fill="#fff0ce" stroke="none"/><ellipse cx="183" cy="155" rx="1.4" ry="1.4" fill="#fff0ce" stroke="none"/><ellipse cx="155" cy="137" rx="1.4" ry="1.4" fill="#fff0ce" stroke="none"/><ellipse cx="168" cy="156" rx="1.4" ry="1.4" fill="#fff0ce" stroke="none"/><ellipse cx="181" cy="138" rx="1.4" ry="1.4" fill="#fff0ce" stroke="none"/><ellipse cx="153" cy="157" rx="1.4" ry="1.4" fill="#fff0ce" stroke="none"/><ellipse cx="166" cy="139" rx="1.4" ry="1.4" fill="#fff0ce" stroke="none"/><ellipse cx="179" cy="158" rx="1.4" ry="1.4" fill="#fff0ce" stroke="none"/><ellipse cx="151" cy="140" rx="1.4" ry="1.4" fill="#fff0ce" stroke="none"/><ellipse cx="164" cy="159" rx="1.4" ry="1.4" fill="#fff0ce" stroke="none"/><ellipse cx="177" cy="141" rx="1.4" ry="1.4" fill="#fff0ce" stroke="none"/><ellipse cx="149" cy="160" rx="1.4" ry="1.4" fill="#fff0ce" stroke="none"/><ellipse cx="162" cy="142" rx="1.4" ry="1.4" fill="#fff0ce" stroke="none"/><ellipse cx="175" cy="161" rx="1.4" ry="1.4" fill="#fff0ce" stroke="none"/><ellipse cx="147" cy="143" rx="1.4" ry="1.4" fill="#fff0ce" stroke="none"/></g></svg>
