<svg xmlns="http://www.w3.org/2000/svg" width="256" height="256" viewBox="0 0 256 256" role="img" aria-labelledby="title"><title id="title">Lampin bayi</title><ellipse cx="128" cy="217" rx="79" ry="11" fill="#604530" opacity=".12"/><g stroke="#302d38" stroke-width="3.5" stroke-linecap="round" stroke-linejoin="round"><path d="M76 50q54-13 107 0l-5 20 16 116q-62 23-129 0L80 72Z" fill="#a3c1ce" /><path d="M78 67q49 7 102 0M78 182q50 16 103 0" fill="none" /><path d="M80 52l12 13-7 18M175 51l-10 14 9 17" fill="none" stroke-width="2"/><rect x="89" y="99" width="80" height="53" rx="3" fill="#fff7e4" /><text x="129" y="123" text-anchor="middle" font-family="sans-serif" font-size="14" font-weight="800" fill="#302d38" stroke="none">LAMPIN</text><path d="M107 137h43" fill="none" stroke-width="2" opacity=".5"/><ellipse cx="127" cy="160" rx="22" ry="22" fill="#fff0ce" /><ellipse cx="119" cy="156" rx="2" ry="2" fill="#302d38" /><ellipse cx="135" cy="156" rx="2" ry="2" fill="#302d38" /><path d="M119 166q8 7 16 0" fill="none" /><path d="M111 143q2-16 14-14q11 2 6 10" fill="none" /></g></svg>
