<svg xmlns="http://www.w3.org/2000/svg" width="256" height="256" viewBox="0 0 256 256" role="img" aria-labelledby="title"><title id="title">Bekalan mencuci</title><ellipse cx="128" cy="217" rx="79" ry="11" fill="#604530" opacity=".12"/><g stroke="#302d38" stroke-width="3.5" stroke-linecap="round" stroke-linejoin="round"><rect x="84" y="65" width="59" height="123" rx="12" fill="#5e97b7" /><path d="M97 66V46h30v20" fill="#e8b65b" /><rect x="102" y="35" width="30" height="16" rx="2" fill="#d85247" /><rect x="93" y="110" width="43" height="43" rx="4" fill="#fff0ce" /><ellipse cx="122" cy="130" rx="4.96" ry="4.96" fill="#d85247" stroke-width="2"/><ellipse cx="116.47698250445619" cy="137.60687568405177" rx="4.96" ry="4.96" fill="#d85247" stroke-width="2"/><ellipse cx="107.53386058184552" cy="134.71052449574236" rx="4.96" ry="4.96" fill="#d85247" stroke-width="2"/><ellipse cx="107.51888894300801" cy="125.31009600663978" rx="4.96" ry="4.96" fill="#d85247" stroke-width="2"/><ellipse cx="116.45273974375279" cy="122.38527296947451" rx="4.96" ry="4.96" fill="#d85247" stroke-width="2"/><ellipse cx="114" cy="130" rx="3.36" ry="3.36" fill="#e8b65b" stroke-width="2"/><g transform="rotate(-15 177 167)"><rect x="150" y="139" width="54" height="35" rx="5" fill="#e8b65b" /><path d="M154 172v19" fill="none" stroke-width="3"/><path d="M160 172v19" fill="none" stroke-width="3"/><path d="M166 172v19" fill="none" stroke-width="3"/><path d="M172 172v19" fill="none" stroke-width="3"/><path d="M178 172v19" fill="none" stroke-width="3"/><path d="M184 172v19" fill="none" stroke-width="3"/><path d="M190 172v19" fill="none" stroke-width="3"/><path d="M196 172v19" fill="none" stroke-width="3"/></g></g></svg>
