<svg xmlns="http://www.w3.org/2000/svg" width="256" height="256" viewBox="0 0 256 256" role="img" aria-labelledby="title"><title id="title">Sarung tangan bengkel</title><ellipse cx="128" cy="217" rx="79" ry="11" fill="#604530" opacity=".12"/><g stroke="#302d38" stroke-width="3.5" stroke-linecap="round" stroke-linejoin="round"><g transform="rotate(-14 100 125)"><path d="M61 141l-5-69q0-14 11-13l7 52-4-67q3-13 13-5l7 65 0-70q7-13 16-2l3 72 7-60q9-10 16 1l-4 88 13-29q17-16 23 0l-24 57-7 23-51 0Z" fill="#d5b786" /><rect x="77" y="168" width="65" height="25" rx="4" fill="#93724e" /><path d="M88 177h40" fill="none" stroke-width="2" opacity=".5"/><path d="M88 184h40" fill="none" stroke-width="2" opacity=".5"/></g><g transform="translate(79 15) scale(.8) rotate(12 100 125)"><path d="M61 141l-5-69q0-14 11-13l7 52-4-67q3-13 13-5l7 65 0-70q7-13 16-2l3 72 7-60q9-10 16 1l-4 88 13-29q17-16 23 0l-24 57-7 23-51 0Z" fill="#d5b786" /><rect x="77" y="168" width="65" height="25" rx="4" fill="#93724e" /></g></g></svg>
