<svg xmlns="http://www.w3.org/2000/svg" viewBox="0 0 160 160"><path fill="#497c75" stroke="#292832" stroke-width="6" d="m46 95-17 52 28-10 16 14 9-48m32-8 17 52-28-10-16 14-9-48"/><path fill="#edc05b" stroke="#292832" stroke-width="6" stroke-linejoin="round" d="m80 9 17 11 20 1 8 19 15 14-5 21 5 20-15 14-8 19-20 1-17 11-17-11-20-1-8-19-15-14 5-20-5-21 15-14 8-19 20-1z"/><circle cx="80" cy="75" r="44" fill="#fff1bd" stroke="#292832" stroke-width="5"/><path d="M49 70q5 24 31 38 26-14 31-38" fill="#9b6944" stroke="#292832" stroke-width="5"/><ellipse cx="80" cy="68" rx="32" ry="14" fill="#c9553d" stroke="#292832" stroke-width="5"/><path d="m55 62 25 6 23-8m-23 8-9 11m9-11 13 9" fill="none" stroke="#ffe8a1" stroke-width="4"/><rect x="74" y="45" width="12" height="22" rx="4" fill="#c39663" stroke="#292832" stroke-width="4"/></svg>
